<svg width="24" height="24" viewBox="0 0 24 24" fill="#9393AA" xmlns="http://www.w3.org/2000/svg">
<path d="M12.5898 11.0312V10.4453H11.4141V11.0312C11.4141 11.3548 11.1517 11.6172 10.8281 11.6172H10.2422V12.793H10.8281C11.1517 12.793 11.4141 13.0553 11.4141 13.3789V13.9648H12.5898V13.3789C12.5898 13.0553 12.8522 12.793 13.1758 12.793H13.7617V11.6172H13.1758C12.8521 11.6172 12.5898 11.3548 12.5898 11.0312Z"/>
<path d="M20.2422 4H14.7098L13.8618 5.69598C13.6633 6.09297 13.2575 6.34375 12.8136 6.34375H3.75781C2.78699 6.34375 2 7.13074 2 8.10156V17.5156C2 18.4864 2.78699 19.2734 3.75781 19.2734H20.2422C21.213 19.2734 22 18.4864 22 17.5156V5.75781C22 4.78699 21.213 4 20.2422 4ZM14.9336 13.3789C14.9336 13.7025 14.6713 13.9648 14.3477 13.9648H13.7617V14.5508C13.7617 14.8744 13.4994 15.1367 13.1758 15.1367H10.8281C10.5045 15.1367 10.2422 14.8744 10.2422 14.5508V13.9648H9.65625C9.33266 13.9648 9.07031 13.7025 9.07031 13.3789V11.0312C9.07031 10.7077 9.33266 10.4453 9.65625 10.4453H10.2422V9.85938C10.2422 9.53578 10.5045 9.27344 10.8281 9.27344H13.1758C13.4994 9.27344 13.7617 9.53578 13.7617 9.85938V10.4453H14.3477C14.6713 10.4453 14.9336 10.7077 14.9336 11.0312V13.3789ZM19.0332 16.8906H16.6895C16.3659 16.8906 16.1035 16.6283 16.1035 16.3047C16.1035 15.9811 16.3659 15.7188 16.6895 15.7188H19.0332C19.3568 15.7188 19.6191 15.9811 19.6191 16.3047C19.6191 16.6283 19.3568 16.8906 19.0332 16.8906ZM19.0332 14.5469H16.6895C16.3659 14.5469 16.1035 14.2845 16.1035 13.9609C16.1035 13.6373 16.3659 13.375 16.6895 13.375H19.0332C19.3568 13.375 19.6191 13.6373 19.6191 13.9609C19.6191 14.2845 19.3568 14.5469 19.0332 14.5469Z"/>
</svg>
