<svg width="18" height="20" viewBox="0 0 18 20" fill="none" xmlns="http://www.w3.org/2000/svg">
<path d="M4.67972 10.2478C4.67972 9.70924 4.30576 9.38782 3.64581 9.38782C3.3766 9.38782 3.19421 9.41378 3.09857 9.43981V11.1692C3.21164 11.1949 3.35064 11.2036 3.54127 11.2036C4.24537 11.2036 4.67972 10.8475 4.67972 10.2478Z" fill="white"/>
<path d="M8.76437 9.40527C8.46862 9.40527 8.27791 9.43131 8.16455 9.45738V13.289C8.27769 13.3155 8.46019 13.3155 8.62533 13.3155C9.8242 13.3238 10.6062 12.6638 10.6062 11.2649C10.615 10.048 9.90235 9.40527 8.76437 9.40527Z" fill="white"/>
<path d="M16.5912 7.15391H16.1109V4.8367C16.1109 4.82225 16.1087 4.80769 16.1067 4.79306C16.106 4.70104 16.0767 4.61067 16.0137 4.53906L12.1576 0.134132C12.1564 0.133006 12.1553 0.132607 12.1545 0.131372C12.1315 0.105701 12.1047 0.0843499 12.0764 0.0658677C12.068 0.0602395 12.0596 0.0555191 12.0508 0.0506535C12.0262 0.0372548 12.0002 0.0261437 11.9734 0.0181191C11.9661 0.0160857 11.9596 0.0131082 11.9523 0.01122C11.9232 0.00432098 11.893 0 11.8623 0H2.38547C1.95272 0 1.60116 0.35196 1.60116 0.784349V7.15373H1.12102C0.50196 7.15373 0 7.65547 0 8.27475V14.1043C0 14.7231 0.50196 15.2252 1.12102 15.2252H1.6012V19.2157C1.6012 19.648 1.95276 20 2.38551 20H15.3267C15.759 20 16.111 19.648 16.111 19.2157V15.2252H16.5912C17.2101 15.2252 17.7122 14.7231 17.7122 14.1043V8.27493C17.7121 7.65569 17.2101 7.15391 16.5912 7.15391ZM2.38547 0.784494H11.4702V4.7973C11.4702 5.01397 11.6459 5.18946 11.8623 5.18946H15.3266V7.15416H2.38547V0.784494ZM12.0136 11.2209C12.0136 12.342 11.6054 13.115 11.0397 13.5931C10.4235 14.1057 9.48491 14.3489 8.33837 14.3489C7.65209 14.3489 7.16564 14.3055 6.83506 14.2622V8.50997C7.32159 8.43194 7.95627 8.38847 8.62533 8.38847C9.73687 8.38847 10.4582 8.58847 11.0233 9.01396C11.6312 9.46585 12.0136 10.1869 12.0136 11.2209ZM1.78634 14.2882V8.50997C2.19451 8.44083 2.76826 8.38847 3.57632 8.38847C4.39298 8.38847 4.97526 8.5449 5.36611 8.8579C5.73982 9.15314 5.9912 9.63982 5.9912 10.2133C5.9912 10.787 5.80057 11.2735 5.45275 11.6035C5.00097 12.0293 4.33202 12.2206 3.54981 12.2206C3.37632 12.2206 3.21938 12.2118 3.09829 12.1944V14.2884H1.78634V14.2882ZM15.3267 19.0033H2.38547V15.2252H15.3266V19.0033H15.3267ZM16.4631 9.51803H14.2122V10.8561H16.3151V11.9336H14.2122V14.2883H12.8835V8.43194H16.4631V9.51803Z" fill="white"/>
</svg>
