<svg width="24" height="20" viewBox="0 0 24 20" fill="none" xmlns="http://www.w3.org/2000/svg">
<path d="M4.00001 0H0.800002C0.358401 0 0 0.358401 0 0.800002V4.00001C0 4.44161 0.358401 4.80001 0.800002 4.80001C1.2416 4.80001 1.6 4.44161 1.6 4.00001V1.6H4.00001C4.44161 1.6 4.80001 1.2416 4.80001 0.800002C4.80001 0.358401 4.44161 0 4.00001 0Z" fill="white"/>
<path d="M23.1999 14.4C22.7583 14.4 22.3999 14.7584 22.3999 15.2V17.6H19.9999C19.5583 17.6 19.1999 17.9584 19.1999 18.4C19.1999 18.8416 19.5583 19.2 19.9999 19.2H23.1999C23.6415 19.2 23.9999 18.8416 23.9999 18.4V15.2C23.9999 14.7584 23.6415 14.4 23.1999 14.4Z" fill="white"/>
<path d="M23.1999 0H19.9999C19.5583 0 19.1999 0.358401 19.1999 0.800002C19.1999 1.2416 19.5583 1.6 19.9999 1.6H22.3999V4.00001C22.3999 4.44161 22.7583 4.80001 23.1999 4.80001C23.6415 4.80001 23.9999 4.44161 23.9999 4.00001V0.800002C23.9999 0.358401 23.6415 0 23.1999 0Z" fill="white"/>
<path d="M4.00001 17.6H1.6V15.2C1.6 14.7584 1.2416 14.4 0.800002 14.4C0.358401 14.4 0 14.7584 0 15.2V18.4C0 18.8416 0.358401 19.2 0.800002 19.2H4.00001C4.44161 19.2 4.80001 18.8416 4.80001 18.4C4.80001 17.9584 4.44161 17.6 4.00001 17.6Z" fill="white"/>
<path d="M4.79995 3.19995H3.19995V16H4.79995V3.19995Z" fill="white"/>
<path d="M8.00003 3.19995H6.40002V12.8H8.00003V3.19995Z" fill="white"/>
<path d="M11.2 3.19995H9.59998V12.8H11.2V3.19995Z" fill="white"/>
<path d="M14.4 3.19995H12.8V16H14.4V3.19995Z" fill="white"/>
<path d="M17.5999 3.19995H15.9999V12.8H17.5999V3.19995Z" fill="white"/>
<path d="M20.7999 3.19995H19.1999V16H20.7999V3.19995Z" fill="white"/>
<path d="M8.00003 14.4H6.40002V16H8.00003V14.4Z" fill="white"/>
<path d="M11.2 14.4H9.59998V16H11.2V14.4Z" fill="white"/>
<path d="M17.5999 14.4H15.9999V16H17.5999V14.4Z" fill="white"/>
</svg>
