<svg width="16" height="16" viewBox="0 0 16 16" fill="none" xmlns="http://www.w3.org/2000/svg">
<path fill-rule="evenodd" clip-rule="evenodd" d="M9.08445 7.99902L15.7745 1.30896C16.0742 1.00928 16.0742 0.523458 15.7745 0.223781C15.4748 -0.0758958 14.989 -0.0758958 14.6893 0.223781L7.99927 6.91384L1.3092 0.224804C1.00953 -0.0748731 0.523703 -0.0748731 0.224025 0.224804C-0.0756517 0.524481 -0.0756517 1.01031 0.224025 1.30998L6.91409 8.00004L0.225048 14.6891C-0.0746289 14.9888 -0.0746289 15.4746 0.225048 15.7743C0.375398 15.9236 0.570751 15.9993 0.767126 15.9993C0.963502 15.9993 1.15988 15.9246 1.3092 15.7743L7.99927 9.0842L14.6893 15.7743C14.8397 15.9236 15.035 15.9993 15.2314 15.9993C15.4278 15.9993 15.6242 15.9246 15.7735 15.7743C16.0732 15.4746 16.0732 14.9888 15.7735 14.6891L9.08445 7.99902Z" fill="#9393AA"/>
</svg>
