<svg width="60" height="60" viewBox="0 0 60 60" fill="none" xmlns="http://www.w3.org/2000/svg">
<rect opacity="0.08" width="60" height="60" rx="8" fill="black"/>
<path opacity="0.5" d="M47.3529 35.56C45.9858 34.3588 44.3279 33.3208 42.4249 32.4752C41.6113 32.1139 40.6593 32.4802 40.298 33.2935C39.9367 34.1067 40.3031 35.0587 41.1163 35.4203C42.721 36.1334 44.1038 36.9948 45.2258 37.9808C46.609 39.1962 47.4023 40.9561 47.4023 42.8101V45.791C47.4023 46.6795 46.6795 47.4023 45.791 47.4023H14.209C13.3206 47.4023 12.5977 46.6795 12.5977 45.791V42.8101C12.5977 40.9561 13.391 39.1962 14.7742 37.9808C16.4022 36.5501 21.1456 33.2227 30 33.2227C36.5747 33.2227 41.9238 27.8735 41.9238 21.2988C41.9238 14.7242 36.5747 9.375 30 9.375C23.4253 9.375 18.0762 14.7242 18.0762 21.2988C18.0762 25.1424 19.9047 28.5665 22.7371 30.7484C17.5544 31.8876 14.3305 34.0806 12.6471 35.56C10.5678 37.3869 9.375 40.0293 9.375 42.8101V45.791C9.375 48.4566 11.5434 50.625 14.209 50.625H45.791C48.4566 50.625 50.625 48.4566 50.625 45.791V42.8101C50.625 40.0293 49.4322 37.3869 47.3529 35.56ZM21.2988 21.2988C21.2988 16.501 25.2022 12.5977 30 12.5977C34.7978 12.5977 38.7012 16.501 38.7012 21.2988C38.7012 26.0966 34.7978 30 30 30C25.2022 30 21.2988 26.0966 21.2988 21.2988Z" fill="#9393AA"/>
</svg>
