<svg width="24" height="24" viewBox="0 0 24 24" fill="#9393AA" xmlns="http://www.w3.org/2000/svg">
<path d="M19.875 4.5H18V2.625C18 2.28 17.72 2 17.375 2H6.125C5.09125 2 4.25 2.84125 4.25 3.875V19.5C4.25 20.8787 5.37125 22 6.75 22H19.875C20.22 22 20.5 21.72 20.5 21.375V5.125C20.5 4.78 20.22 4.5 19.875 4.5ZM16.75 17.625C16.75 17.97 16.47 18.25 16.125 18.25H8.625C8.28 18.25 8 17.97 8 17.625V16.375C8 14.6512 9.4025 13.25 11.125 13.25H13.625C15.3488 13.25 16.75 14.6512 16.75 16.375V17.625ZM9.875 9.5C9.875 8.12125 10.9963 7 12.375 7C13.7537 7 14.875 8.12125 14.875 9.5C14.875 10.8787 13.7537 12 12.375 12C10.9963 12 9.875 10.8787 9.875 9.5ZM16.75 4.5H6.125C5.78 4.5 5.5 4.22 5.5 3.875C5.5 3.53 5.78 3.25 6.125 3.25H16.75V4.5Z" />
</svg>
