<svg width="48" height="49" viewBox="0 0 48 49" fill="none" xmlns="http://www.w3.org/2000/svg">
<path d="M24.0001 17C8.16267 17 -3.26733 32.053 0.843228 47.2544C1.00898 47.8674 1.56501 48.293 2.19988 48.293H45.8003C46.4352 48.293 46.9912 47.8674 47.1569 47.2544C51.2665 32.057 39.8407 17 24.0001 17ZM10.6291 42.3905H7.97882C7.20267 42.3905 6.57341 41.7612 6.57341 40.9851C6.57341 40.2089 7.20267 39.5797 7.97882 39.5797H10.6291C11.4053 39.5797 12.0345 40.2089 12.0345 40.9851C12.0345 41.7612 11.4053 42.3905 10.6291 42.3905ZM13.6376 35.0022C13.2494 35.6745 12.3899 35.9048 11.7179 35.5167L9.42267 34.1915C8.75048 33.8035 8.52023 32.9439 8.90826 32.2718C9.29638 31.5995 10.1558 31.3691 10.8281 31.7574L13.1233 33.0825C13.7954 33.4706 14.0256 34.3302 13.6376 35.0022ZM18.0173 30.6225C17.3453 31.0107 16.4857 30.7805 16.0975 30.1081L14.7724 27.8128C14.3843 27.1407 14.6146 26.2812 15.2868 25.8931C15.9591 25.5048 16.8184 25.7352 17.2066 26.4075L18.5317 28.7028C18.9198 29.375 18.6895 30.2345 18.0173 30.6225ZM22.5947 24.9638C22.5947 24.1876 23.224 23.5584 24.0001 23.5584C24.7763 23.5584 25.4055 24.1876 25.4055 24.9638V27.6141C25.4055 28.3902 24.7763 29.0195 24.0001 29.0195C23.224 29.0195 22.5947 28.3902 22.5947 27.6141V24.9638ZM29.3974 37.5753L24.9939 41.9788C24.445 42.5277 23.5552 42.5277 23.0064 41.9788C22.4576 41.43 22.4576 40.5402 23.0064 39.9913L27.4099 35.5878C27.9587 35.039 28.8486 35.039 29.3974 35.5878C29.9462 36.1366 29.9462 37.0265 29.3974 37.5753ZM33.2279 27.8129L31.9028 30.1082C31.5149 30.78 30.6556 31.0109 29.983 30.6226C29.3108 30.2346 29.0805 29.3751 29.4686 28.7028L30.7936 26.4075C31.1817 25.7354 32.0411 25.5049 32.7134 25.8931C33.3856 26.2812 33.6159 27.1407 33.2279 27.8129ZM34.3627 35.0022C33.9746 34.3302 34.2049 33.4706 34.8771 33.0825L37.1723 31.7574C37.8445 31.3692 38.704 31.5996 39.092 32.2718C39.4801 32.9439 39.2498 33.8035 38.5776 34.1915L36.2824 35.5167C35.6109 35.9046 34.751 35.6749 34.3627 35.0022ZM40.0214 42.3905H37.3711C36.595 42.3905 35.9657 41.7612 35.9657 40.9851C35.9657 40.2089 36.595 39.5797 37.3711 39.5797H40.0214C40.7976 39.5797 41.4268 40.2089 41.4268 40.9851C41.4268 41.7612 40.7976 42.3905 40.0214 42.3905Z" fill="#EB5757"/>
<path d="M31.1275 1.90951C30.8285 0.442444 28.7528 0.369369 28.3442 1.79508L26.5738 8.00573C26.5644 7.97385 24.7349 1.77137 24.7243 1.73989C24.2578 0.350675 22.2338 0.478939 21.9553 1.92545C21.9544 1.93006 21.9536 1.93468 21.9527 1.93937L20.2281 11.4951C20.109 12.1544 20.5471 12.7853 21.2065 12.9044C21.8661 13.0234 22.4967 12.5853 22.6157 11.926L23.5969 6.48955C23.6062 6.52143 25.2195 11.9907 25.2301 12.0223C25.6779 13.3558 27.5838 13.3061 27.9676 11.9665L29.5312 6.48137L30.5741 11.9383C30.6999 12.5965 31.3353 13.028 31.9933 12.9022C32.6514 12.7764 33.0829 12.141 32.9571 11.4829C32.9545 11.4687 31.1304 1.92359 31.1275 1.90951Z" fill="#EB5757"/>
<path d="M36.8646 0.761169C36.1946 0.761169 35.6515 1.30433 35.6515 1.9743V11.7869C35.6515 12.4568 36.1946 13 36.8646 13C37.5346 13 38.0777 12.4568 38.0777 11.7869V1.9743C38.0777 1.30433 37.5346 0.761169 36.8646 0.761169Z" fill="#EB5757"/>
<path d="M16.2512 6.12747C16.6081 5.58212 16.8165 4.93117 16.8165 4.23215C16.8165 2.31822 15.2595 0.761169 13.3455 0.761169H10.4952C9.8252 0.761169 9.28204 1.30433 9.28204 1.9743V6.49267V6.50004V11.7869C9.28204 12.1096 9.41054 12.419 9.63923 12.6465C9.86663 12.8729 10.1744 12.9999 10.4951 12.9999H10.5005C10.5267 12.9997 13.1307 12.9883 13.8432 12.9883C15.9685 12.9883 17.6976 11.2592 17.6976 9.13386C17.6976 7.91912 17.1321 6.83441 16.2512 6.12747ZM11.7083 3.18734H13.3455C13.9216 3.18734 14.3903 3.65605 14.3903 4.23215C14.3903 4.80825 13.9216 5.27696 13.3455 5.27696C12.8498 5.27696 12.7849 5.27955 11.7083 5.27955V3.18734ZM13.8433 10.5621C13.452 10.5621 12.4988 10.5656 11.7083 10.5686V7.70807C12.4575 7.70515 12.1052 7.70572 13.8433 7.70572C14.6308 7.70572 15.2714 8.34639 15.2714 9.13386C15.2714 9.92141 14.6308 10.5621 13.8433 10.5621Z" fill="#EB5757"/>
</svg>
