<svg width="48" height="35" viewBox="0 0 48 35" fill="none" xmlns="http://www.w3.org/2000/svg">
<path d="M47.9812 18.6733C47.8219 19.6357 47.7095 20.6074 47.4939 21.5605C47.0254 23.6347 46.2475 25.5688 44.6638 27.0825C41.4307 30.1752 35.0019 29.138 33.5306 24.2701C33.3713 23.7375 33.3526 23.1302 33.3807 22.5696C33.4182 21.8968 33.7555 21.3082 34.3459 20.9345C35.5361 20.1963 36.7731 19.8132 38.1413 20.5234C38.5349 20.7289 38.9473 20.5888 39.1534 20.2337C39.369 19.86 39.2565 19.4582 38.8535 19.1872C37.3448 18.1595 35.0675 18.2435 33.54 19.3928C33.4088 19.4956 33.2682 19.5983 33.137 19.7011C31.5158 18.1875 30.8504 15.1228 31.7032 13.114C31.825 12.8337 31.9937 12.5627 32.1718 12.3104C32.4623 11.8806 32.8278 11.7031 33.3994 11.7966C35.6017 12.1609 37.8133 10.339 37.9539 8.11522C37.982 7.70411 37.6915 7.33972 37.2979 7.28365C36.8856 7.22759 36.5388 7.46118 36.4545 7.90032C36.3327 8.55437 36.0984 9.143 35.6111 9.62887C34.8988 10.339 33.9992 10.3203 33.1089 10.2549C32.0125 10.1708 30.9629 9.88114 29.9976 9.32053C29.1261 8.82533 28.6669 8.12457 28.5826 7.0781C28.2452 2.82682 32.4061 -1.18153 37.5697 0.322768C40.456 1.16368 42.6115 2.995 44.3452 5.3589C46.3225 8.04982 47.3908 11.1051 47.8125 14.4034C47.8688 14.8332 47.9344 15.263 48 15.6928C47.9812 16.6832 47.9812 17.6829 47.9812 18.6733Z" fill="#EB5757"/>
<path d="M0 15.6838C0.131199 14.8242 0.224912 13.9646 0.384225 13.1143C1.2089 8.9004 3.01757 5.21907 6.41 2.4534C8.28426 0.930418 10.4022 -0.0319591 12.8762 0.00541477C16.7747 0.0708191 19.8485 3.60265 19.3799 7.45216C19.305 8.07817 19.0238 8.58272 18.5271 8.94712C17.0652 10.0123 15.4065 10.414 13.6259 10.2178C12.6044 10.1057 11.836 9.27414 11.6298 8.2557C11.4705 7.48019 11.1706 7.1812 10.6552 7.28398C10.1585 7.38676 9.98047 7.80721 10.1304 8.57338C10.5334 10.6476 12.5576 12.1146 14.6474 11.7875C15.1535 11.7034 15.4815 11.8623 15.772 12.236C16.3155 12.9181 16.5685 13.7123 16.6341 14.5625C16.8028 16.5247 16.1843 18.2252 14.8817 19.7295C13.8134 18.8138 12.6138 18.3747 11.2362 18.4868C10.4772 18.5429 9.77431 18.7858 9.13705 19.1969C8.72472 19.4585 8.62163 19.8696 8.83717 20.2434C9.05271 20.6078 9.46505 20.7292 9.89613 20.5237C11.3581 19.8136 12.6794 20.1967 13.8602 21.131C14.7224 21.8131 14.8067 22.8409 14.5724 23.8313C13.9539 26.5035 12.1827 28.0732 9.55876 28.6618C6.2788 29.3906 3.4674 28.0825 1.81804 25.1487C0.76845 23.2987 0.309254 21.2992 0.0937134 19.2249C0.0749707 19.0381 0.028114 18.8605 0 18.683C0 17.6833 0 16.6835 0 15.6838Z" fill="#EB5757"/>
<path d="M29.6978 16.2254C29.9883 17.0943 30.2694 17.8978 30.5318 18.7107C30.5599 18.8042 30.5131 18.9537 30.4475 19.0377C29.3604 20.458 28.9668 22.1304 28.6763 23.8403C28.1421 26.9797 28.0953 30.1565 28.1234 33.3333C28.1234 33.707 28.0859 34.0527 27.711 34.2489C27.0925 34.5853 26.4646 34.1835 26.4459 33.4173C26.4178 32.0625 26.3897 30.7077 26.4084 29.3529C26.4553 26.2509 26.7552 23.1769 27.5611 20.1683C27.8797 18.991 28.3014 17.8605 29.0699 16.8887C29.2573 16.6552 29.4916 16.4496 29.6978 16.2254Z" fill="#EB5757"/>
<path d="M18.3022 16.1505C18.6864 16.6644 19.0988 17.1129 19.3893 17.6174C20.2233 19.047 20.5888 20.6447 20.8887 22.2518C21.5822 25.9425 21.6759 29.6705 21.5353 33.4079C21.5072 34.1834 20.9074 34.5852 20.2796 34.2582C19.9422 34.0806 19.8579 33.791 19.8579 33.4359C19.8391 31.7074 19.8485 29.9789 19.7641 28.2503C19.6423 25.6902 19.4174 23.1301 18.4615 20.7101C18.2366 20.1402 17.8618 19.6263 17.5713 19.075C17.5057 18.9536 17.4307 18.7854 17.4682 18.6639C17.7212 17.8791 17.993 17.0942 18.3022 16.1505Z" fill="#EB5757"/>
</svg>
