<svg width="43" height="48" viewBox="0 0 43 48" fill="none" xmlns="http://www.w3.org/2000/svg">
<path d="M11.2312 24.5944C11.2312 23.3019 10.3337 22.5305 8.7498 22.5305C8.1037 22.5305 7.66597 22.5928 7.43642 22.6553V26.8057C7.7078 26.8674 8.04139 26.8885 8.4989 26.8885C10.1887 26.8885 11.2312 26.0336 11.2312 24.5944Z" fill="#0798F2"/>
<path d="M21.0345 22.5727C20.3247 22.5727 19.867 22.6351 19.5949 22.6977V31.8936C19.8665 31.9571 20.3045 31.9571 20.7008 31.9571C23.5781 31.9772 25.455 30.3932 25.455 27.0357C25.476 24.1151 23.7656 22.5727 21.0345 22.5727Z" fill="#0798F2"/>
<path d="M39.8188 17.1694H38.6663V11.6081C38.6663 11.5734 38.6608 11.5385 38.6561 11.5033C38.6543 11.2825 38.5841 11.0656 38.4329 10.8937L29.1783 0.321917C29.1755 0.319215 29.1728 0.318256 29.1708 0.315294C29.1157 0.253681 29.0514 0.20244 28.9834 0.158082C28.9633 0.144575 28.943 0.133246 28.9219 0.121568C28.863 0.0894116 28.8005 0.062745 28.7362 0.0434858C28.7187 0.0386056 28.703 0.0314596 28.6856 0.0269281C28.6157 0.0103703 28.5431 0 28.4696 0H5.72513C4.68653 0 3.84278 0.844704 3.84278 1.88244V17.1689H2.69045C1.2047 17.1689 0 18.3731 0 19.8594V33.8502C0 35.3354 1.2047 36.5404 2.69045 36.5404H3.84287V46.1176C3.84287 47.1552 4.68661 48 5.72522 48H36.784C37.8216 48 38.6663 47.1553 38.6663 46.1176V36.5404H39.8189C41.3042 36.5404 42.5092 35.3354 42.5092 33.8502V19.8598C42.5091 18.3736 41.3042 17.1694 39.8188 17.1694ZM5.72513 1.88279H27.5284V11.5135C27.5284 12.0335 27.9503 12.4547 28.4696 12.4547H36.7839V17.17H5.72513V1.88279ZM28.8326 26.9301C28.8326 29.6208 27.8529 31.476 26.4954 32.6236C25.0164 33.8538 22.7638 34.4374 20.0121 34.4374C18.365 34.4374 17.1975 34.3331 16.4042 34.2292V20.4239C17.5718 20.2367 19.095 20.1323 20.7008 20.1323C23.3685 20.1323 25.0997 20.6123 26.4558 21.6335C27.9149 22.718 28.8326 24.4485 28.8326 26.9301ZM4.28723 34.2918V20.4239C5.26683 20.258 6.64382 20.1323 8.58317 20.1323C10.5432 20.1323 11.9406 20.5078 12.8787 21.259C13.7756 21.9675 14.3789 23.1356 14.3789 24.5119C14.3789 25.8888 13.9214 27.0564 13.0866 27.8483C12.0023 28.8704 10.3968 29.3294 8.51955 29.3294C8.10317 29.3294 7.72652 29.3083 7.43589 29.2664V34.2921H4.28723V34.2918ZM36.784 45.608H5.72513V36.5404H36.7839V45.608H36.784ZM39.5114 22.8433H34.1093V26.0547H39.1562V28.6406H34.1093V34.2919H30.9204V20.2367H39.5114V22.8433Z" fill="#0798F2"/>
<rect x="2" y="19" width="39" height="16" fill="#0798F2"/>
<path d="M2.09256 23.304H4.18856C5.1219 23.304 5.84456 23.552 6.35656 24.048C6.8739 24.544 7.13256 25.2427 7.13256 26.144C7.13256 27.0507 6.8739 27.7547 6.35656 28.256C5.84456 28.752 5.1219 29 4.18856 29H2.09256V23.304ZM4.12456 28.16C5.43656 28.16 6.09256 27.488 6.09256 26.144C6.09256 24.8107 5.43656 24.144 4.12456 24.144H3.12456V28.16H4.12456ZM9.94631 29.064C9.53565 29.064 9.17298 28.9787 8.85831 28.808C8.54898 28.6373 8.30898 28.3947 8.13831 28.08C7.97298 27.76 7.89031 27.3867 7.89031 26.96C7.89031 26.5333 7.97298 26.1627 8.13831 25.848C8.30898 25.528 8.54898 25.2827 8.85831 25.112C9.17298 24.9413 9.53565 24.856 9.94631 24.856C10.3516 24.856 10.709 24.9413 11.0183 25.112C11.3276 25.2827 11.565 25.528 11.7303 25.848C11.901 26.1627 11.9863 26.5333 11.9863 26.96C11.9863 27.3867 11.901 27.76 11.7303 28.08C11.565 28.3947 11.3276 28.6373 11.0183 28.808C10.709 28.9787 10.3516 29.064 9.94631 29.064ZM9.93831 28.28C10.2796 28.28 10.5383 28.1707 10.7143 27.952C10.8956 27.728 10.9863 27.3973 10.9863 26.96C10.9863 26.528 10.8956 26.2 10.7143 25.976C10.533 25.7467 10.277 25.632 9.94631 25.632C9.61031 25.632 9.35165 25.7467 9.17031 25.976C8.98898 26.2 8.89831 26.528 8.89831 26.96C8.89831 27.3973 8.98631 27.728 9.16231 27.952C9.34365 28.1707 9.60231 28.28 9.93831 28.28ZM14.6807 29.064C14.2594 29.064 13.894 28.9787 13.5847 28.808C13.2754 28.6373 13.038 28.3973 12.8727 28.088C12.7074 27.7733 12.6247 27.4053 12.6247 26.984C12.6247 26.5627 12.71 26.192 12.8807 25.872C13.0567 25.552 13.302 25.304 13.6167 25.128C13.9367 24.9467 14.3047 24.856 14.7207 24.856C15.0087 24.856 15.286 24.9013 15.5527 24.992C15.8247 25.0827 16.0407 25.208 16.2007 25.368L15.9207 26.072C15.75 25.9333 15.5687 25.8293 15.3767 25.76C15.1847 25.6853 14.9954 25.648 14.8087 25.648C14.446 25.648 14.1634 25.7627 13.9607 25.992C13.758 26.216 13.6567 26.5413 13.6567 26.968C13.6567 27.3947 13.7554 27.72 13.9527 27.944C14.1554 28.168 14.4407 28.28 14.8087 28.28C14.9954 28.28 15.1847 28.2427 15.3767 28.168C15.5687 28.0933 15.75 27.9867 15.9207 27.848L16.2007 28.552C16.03 28.712 15.8087 28.8373 15.5367 28.928C15.2647 29.0187 14.9794 29.064 14.6807 29.064ZM20.5521 24.96V29H19.5761V28.376C19.4481 28.6 19.2775 28.7707 19.0641 28.888C18.8508 29.0053 18.6055 29.064 18.3281 29.064C17.3415 29.064 16.8481 28.5093 16.8481 27.4V24.96H17.8401V27.408C17.8401 27.7013 17.8988 27.9173 18.0161 28.056C18.1388 28.1947 18.3255 28.264 18.5761 28.264C18.8695 28.264 19.1041 28.168 19.2801 27.976C19.4561 27.784 19.5441 27.528 19.5441 27.208V24.96H20.5521ZM26.4058 24.856C26.8644 24.856 27.2058 24.9947 27.4298 25.272C27.6538 25.544 27.7658 25.96 27.7658 26.52V29H26.7658V26.552C26.7658 26.232 26.7124 26.0027 26.6058 25.864C26.5044 25.72 26.3338 25.648 26.0938 25.648C25.8164 25.648 25.5978 25.7467 25.4378 25.944C25.2831 26.136 25.2057 26.4027 25.2057 26.744V29H24.2058V26.552C24.2058 26.2373 24.1498 26.008 24.0378 25.864C23.9311 25.72 23.7604 25.648 23.5258 25.648C23.2484 25.648 23.0298 25.7467 22.8698 25.944C22.7098 26.136 22.6298 26.4027 22.6298 26.744V29H21.6378V26.104C21.6378 25.6773 21.6164 25.296 21.5738 24.96H22.5098L22.5818 25.6C22.6991 25.36 22.8671 25.176 23.0858 25.048C23.3098 24.92 23.5658 24.856 23.8538 24.856C24.4724 24.856 24.8751 25.112 25.0618 25.624C25.1898 25.384 25.3711 25.1973 25.6058 25.064C25.8458 24.9253 26.1124 24.856 26.4058 24.856ZM32.3691 27.032H29.5851C29.6064 27.464 29.7131 27.784 29.9051 27.992C30.1024 28.1947 30.3931 28.296 30.7771 28.296C31.2197 28.296 31.6304 28.152 32.0091 27.864L32.2971 28.552C32.1051 28.7067 31.8677 28.832 31.5851 28.928C31.3077 29.0187 31.0251 29.064 30.7371 29.064C30.0757 29.064 29.5557 28.8773 29.1771 28.504C28.7984 28.1307 28.6091 27.6187 28.6091 26.968C28.6091 26.5573 28.6917 26.192 28.8571 25.872C29.0224 25.552 29.2544 25.304 29.5531 25.128C29.8517 24.9467 30.1904 24.856 30.5691 24.856C31.1237 24.856 31.5611 25.0373 31.8811 25.4C32.2064 25.7573 32.3691 26.2507 32.3691 26.88V27.032ZM30.5931 25.576C30.3264 25.576 30.1077 25.656 29.9371 25.816C29.7717 25.9707 29.6651 26.1973 29.6171 26.496H31.4971C31.4651 26.192 31.3717 25.9627 31.2171 25.808C31.0677 25.6533 30.8597 25.576 30.5931 25.576ZM35.5279 24.856C36.4932 24.856 36.9759 25.4107 36.9759 26.52V29H35.9759V26.568C35.9759 26.248 35.9145 26.016 35.7919 25.872C35.6692 25.7227 35.4799 25.648 35.2239 25.648C34.9199 25.648 34.6745 25.7467 34.4879 25.944C34.3012 26.136 34.2079 26.392 34.2079 26.712V29H33.2159V26.104C33.2159 25.6773 33.1945 25.296 33.1519 24.96H34.0879L34.1599 25.624C34.2985 25.3787 34.4852 25.1893 34.7199 25.056C34.9599 24.9227 35.2292 24.856 35.5279 24.856ZM39.3082 25.712V27.52C39.3082 27.9947 39.5295 28.232 39.9722 28.232C40.0949 28.232 40.2282 28.2107 40.3722 28.168V28.96C40.1962 29.024 39.9829 29.056 39.7322 29.056C39.2735 29.056 38.9215 28.928 38.6762 28.672C38.4309 28.416 38.3082 28.048 38.3082 27.568V25.712H37.5322V24.96H38.3082V23.976L39.3082 23.64V24.96H40.3802V25.712H39.3082Z" fill="white"/>
</svg>
