<svg width="48" height="48" viewBox="0 0 48 48" fill="none" xmlns="http://www.w3.org/2000/svg">
<path d="M38.3916 24.042C38.3916 31.1329 38.3497 38.2238 38.3916 45.3147C38.3916 46.7832 37.2587 48 35.7063 48C24.7133 47.958 13.6783 47.958 2.68531 47.958C1.00699 47.958 0.041958 46.993 0.041958 45.3566C0.041958 31.1748 0.041958 16.951 0 2.76923C0.041958 1.13287 1.21678 0 2.72727 0C13.7203 0.041958 24.7552 0.041958 35.7483 0.041958C37.3846 0.041958 38.3497 1.00699 38.3497 2.64336C38.3916 9.73427 38.3916 16.8671 38.3916 24.042ZM35.2028 22.4056C35.2028 17.4965 35.2028 12.5874 35.2028 7.67832C35.2028 6.58741 34.993 6.37762 33.9021 6.37762C24.0839 6.37762 14.2657 6.37762 4.44755 6.37762C3.52448 6.37762 3.27273 6.62937 3.27273 7.55245C3.27273 17.4126 3.27273 27.2308 3.27273 37.0909C3.27273 38.0979 3.48252 38.3077 4.48951 38.3077C14.3077 38.3077 24.1678 38.3077 33.986 38.3077C34.951 38.3077 35.2028 38.0559 35.2028 37.0909C35.2028 32.2238 35.2028 27.3147 35.2028 22.4056ZM19.2168 44.7273C20.4755 44.7273 21.6084 43.6364 21.6084 42.3776C21.6504 41.1189 20.5594 39.986 19.2587 39.9441C17.958 39.9021 16.8252 41.035 16.8252 42.3357C16.8252 43.5944 17.9161 44.7273 19.2168 44.7273ZM17.6643 4.82517C18.4196 4.82517 19.1748 4.82517 19.972 4.82517C20.5594 4.82517 20.8531 4.53147 20.8951 4.06993C20.8951 3.56643 20.5594 3.23077 19.972 3.23077C18.4615 3.23077 16.9091 3.23077 15.3986 3.23077C14.8112 3.23077 14.4755 3.56643 14.4755 4.06993C14.4755 4.53147 14.8112 4.82517 15.3986 4.82517C16.1538 4.82517 16.9091 4.82517 17.6643 4.82517ZM23.2448 3.23077C22.8252 3.23077 22.4476 3.60839 22.4476 4.02797C22.4476 4.44755 22.8252 4.82517 23.2448 4.82517C23.6643 4.82517 24.042 4.44755 24.042 4.02797C24 3.60839 23.6224 3.23077 23.2448 3.23077Z" fill="#DA8300"/>
<path d="M41.5804 8.81119C43.7203 8.81119 45.8182 8.81119 47.958 8.81119C47.958 8.97902 47.958 9.14685 47.958 9.31468C47.958 18.9231 47.958 28.5315 47.958 38.1399C47.958 39.7762 47.3706 41.2448 46.6993 42.7133C46.3217 43.5105 45.9021 44.3077 45.4825 45.0629C45.1468 45.6503 44.3916 45.6923 44.0559 45.1049C43.007 43.2168 41.958 41.3287 41.6224 39.1469C41.5804 38.8531 41.5804 38.5594 41.5804 38.2657C41.5804 28.6154 41.5804 18.965 41.5804 9.27273C41.5804 9.14685 41.5804 8.97902 41.5804 8.81119Z" fill="#DA8300"/>
<path d="M41.5385 7.17482C41.5804 6.37761 41.5385 5.62237 41.7063 4.86712C42.0419 3.27272 43.5524 2.22377 45.2308 2.43356C46.7832 2.60139 48 3.98601 48 5.58041C48 6.08391 48 6.62936 48 7.17482C45.8182 7.17482 43.7203 7.17482 41.5385 7.17482Z" fill="#DA8300"/>
<path d="M20.6853 31.1748C20.6434 31.6364 20.6014 32.1399 20.5175 32.6014C20.2657 33.7762 19.4266 34.3636 18.2937 34.3636C16.993 34.3217 16.0699 33.1049 16.4056 31.8462C16.6573 30.8811 17.1608 30.3357 18.3357 29.7063C17.958 28.8252 16.8252 28.4476 15.986 29.035C15.4825 29.3706 15.021 29.8322 14.7692 30.3776C14.3077 31.4266 13.972 32.5175 13.6783 33.6084C13.5105 34.1958 13.2587 34.4476 12.7133 34.3636C12.2098 34.2797 11.958 33.9441 12.042 33.3986C12.3357 31.7203 12.8392 30.1259 13.8462 28.7413C15.5664 26.4336 18.5455 26.6434 19.972 29.1608C20.056 29.2867 20.2238 29.4546 20.3497 29.4546C22.0699 29.7483 22.3217 29.8741 23.4546 31.1329C24.4615 29.8741 25.7203 29.1608 27.3147 29.7063C28.6993 30.1678 28.9091 31.3846 28.9091 32.7273C29.4126 32.7273 29.8322 32.7273 30.2937 32.7273C30.8811 32.7273 31.1748 33.021 31.1748 33.5245C31.1748 34.028 30.8811 34.3217 30.2937 34.3217C29.5385 34.3217 28.7832 34.3217 28.0699 34.3217C27.4406 34.3217 27.1469 33.986 27.1888 33.3567C27.2308 32.9371 27.2727 32.5175 27.2727 32.0979C27.2308 31.3427 26.7692 31.007 26.014 31.2168C25.3846 31.3846 24.9231 31.8042 24.6294 32.3497C24.3776 32.8112 24.1678 33.2727 24 33.7343C23.8322 34.1539 23.5385 34.4056 23.0769 34.3217C22.6154 34.2378 22.4056 33.9441 22.4056 33.4825C22.3636 33.1049 22.3217 32.7273 22.1958 32.3497C21.986 31.6364 21.4406 31.2587 20.6853 31.1748ZM19.049 31.3007C18.965 31.2587 18.8811 31.2168 18.8392 31.1748C18.5874 31.4266 18.2937 31.6783 18.0839 31.972C17.9161 32.2238 17.958 32.5175 18.2937 32.6853C18.6294 32.8112 18.8392 32.6434 18.9231 32.3497C18.965 32.014 19.007 31.6364 19.049 31.3007Z" fill="#DA8300"/>
<path d="M20.4336 15.1888C23.7063 15.1888 26.979 15.1888 30.2518 15.1888C30.8392 15.1888 31.1329 15.3986 31.2168 15.8601C31.3007 16.4475 30.965 16.7832 30.2937 16.7832C27.3566 16.7832 24.4615 16.7832 21.5245 16.7832C17.9161 16.7832 14.2657 16.7832 10.6573 16.7832C10.4056 16.7832 10.028 16.6573 9.86014 16.4895C9.69231 16.3217 9.69231 15.944 9.77623 15.6923C9.86014 15.3147 10.1958 15.2308 10.5734 15.2308C12.2518 15.2308 13.9301 15.2308 15.6084 15.2308C17.2028 15.1888 18.7972 15.1888 20.4336 15.1888Z" fill="#DA8300"/>
<path d="M18.042 23.1608C21.3147 23.1608 24.5874 23.1608 27.8601 23.1608C28.5734 23.1608 29.035 23.7902 28.6573 24.3356C28.5315 24.5454 28.1538 24.7133 27.9021 24.7552C26.5594 24.7972 25.2168 24.7552 23.8741 24.7552C18.7133 24.7552 13.5524 24.7552 8.34964 24.7552C8.22377 24.7552 8.0979 24.7552 8.01398 24.7552C7.55244 24.7133 7.25874 24.3776 7.25874 23.9161C7.25874 23.4965 7.5944 23.1608 8.01398 23.1608C8.97902 23.1608 9.98601 23.1608 10.951 23.1608C13.3427 23.1608 15.6923 23.1608 18.042 23.1608Z" fill="#DA8300"/>
<path d="M16.4056 19.1748C19.1748 19.1748 21.9021 19.1748 24.6713 19.1748C25.2168 19.1748 25.5105 19.3846 25.5944 19.8042C25.6783 20.3916 25.3427 20.7692 24.7553 20.7692C22.9091 20.7692 21.021 20.7692 19.1748 20.7692C15.5664 20.7692 11.958 20.7692 8.34966 20.7692C8.26574 20.7692 8.18182 20.7692 8.09791 20.7692C7.5105 20.7692 7.21679 20.4335 7.21679 19.93C7.21679 19.4266 7.5105 19.1748 8.09791 19.1748C10.8671 19.1748 13.6364 19.1748 16.4056 19.1748Z" fill="#DA8300"/>
<path d="M19.2168 11.2028C20.8951 11.2028 22.5734 11.2028 24.2518 11.2028C24.9231 11.2028 25.2168 11.4545 25.2168 12C25.2168 12.5454 24.9231 12.7972 24.2518 12.7972C20.8951 12.7972 17.4965 12.7972 14.1399 12.7972C13.7622 12.7972 13.4266 12.7133 13.3427 12.3776C13.2587 12.1259 13.3007 11.7482 13.4266 11.4965C13.5525 11.3286 13.8881 11.2028 14.1399 11.2028C15.8182 11.2028 17.5385 11.2028 19.2168 11.2028Z" fill="#DA8300"/>
<path d="M29.2028 19.1748C29.6224 19.1748 30.042 19.1748 30.4615 19.1748C30.965 19.1748 31.2168 19.5105 31.2168 19.972C31.2168 20.4335 30.9231 20.7692 30.4615 20.7692C29.6224 20.7692 28.8252 20.7692 27.986 20.7692C27.5245 20.7692 27.2308 20.4335 27.2308 19.972C27.2308 19.5105 27.4825 19.2168 27.986 19.1748C28.3636 19.1748 28.7832 19.1748 29.2028 19.1748Z" fill="#DA8300"/>
</svg>
