<svg width="48" height="48" viewBox="0 0 48 48" fill="none" xmlns="http://www.w3.org/2000/svg">
<rect opacity="0.8" width="48" height="48" rx="16" fill="#7D29F2"/>
<path d="M37.6284 31.1861C36.1808 29.7386 34.0241 29.4531 32.2909 30.3196L29.6419 27.7298C31.1781 25.7408 32.0841 23.2298 32.0841 20.5711C32.0841 14.1115 26.8254 8.85326 20.3653 8.85326C13.9051 8.85326 8.64642 14.1115 8.64642 20.5711C8.64642 26.7845 13.5211 31.9542 19.7547 32.2693C22.6302 32.417 25.3975 31.5111 27.5541 29.8272L30.2032 32.417C29.3661 34.1205 29.6222 36.277 31.0796 37.7343L36.0921 42.7464C37.9041 44.5583 40.8289 44.5583 42.6409 42.7464C44.4529 40.9346 44.4529 38.0101 42.6409 36.1982L37.6284 31.1861Z" fill="white"/>
<path d="M18.4252 33.018C26.4909 33.018 33.0295 26.48 33.0295 18.4149C33.0295 10.3499 26.4909 3.81192 18.4252 3.81192C10.3595 3.81192 3.82099 10.3499 3.82099 18.4149C3.82099 26.48 10.3595 33.018 18.4252 33.018Z" fill="white"/>
<path d="M10.1274 22.9298C10.1274 23.1551 10.0451 23.3458 9.8804 23.5018C9.71573 23.6491 9.52507 23.7228 9.3084 23.7228C9.0744 23.7228 8.8794 23.6491 8.7234 23.5018C8.57607 23.3458 8.5024 23.1551 8.5024 22.9298V15.4158C8.5024 15.1905 8.5804 15.0041 8.7364 14.8568C8.8924 14.7008 9.09173 14.6228 9.3344 14.6228C9.55107 14.6228 9.7374 14.7008 9.8934 14.8568C10.0494 15.0041 10.1274 15.1905 10.1274 15.4158V22.9298ZM19.2975 15.0648C19.5661 15.2035 19.7005 15.4245 19.7005 15.7278C19.7005 15.9098 19.6355 16.0875 19.5055 16.2608C19.3668 16.4428 19.1891 16.5338 18.9725 16.5338C18.8251 16.5338 18.6778 16.4948 18.5305 16.4168C18.1058 16.2175 17.6465 16.1178 17.1525 16.1178C16.5458 16.1178 16.0171 16.2478 15.5665 16.5078C15.1158 16.7591 14.7691 17.1188 14.5265 17.5868C14.2838 18.0461 14.1625 18.5748 14.1625 19.1728C14.1625 20.1955 14.4355 20.9711 14.9815 21.4998C15.5361 22.0285 16.2598 22.2928 17.1525 22.2928C17.6811 22.2928 18.1405 22.1931 18.5305 21.9938C18.6865 21.9245 18.8251 21.8898 18.9465 21.8898C19.1718 21.8898 19.3625 21.9851 19.5185 22.1758C19.6485 22.3405 19.7135 22.5181 19.7135 22.7088C19.7135 22.8475 19.6788 22.9731 19.6095 23.0858C19.5401 23.1985 19.4405 23.2851 19.3105 23.3458C18.6345 23.6838 17.9151 23.8528 17.1525 23.8528C16.3031 23.8528 15.5231 23.6751 14.8125 23.3198C14.1018 22.9558 13.5341 22.4228 13.1095 21.7208C12.6848 21.0188 12.4725 20.1695 12.4725 19.1728C12.4725 18.2888 12.6718 17.4958 13.0705 16.7938C13.4778 16.0918 14.0368 15.5458 14.7475 15.1558C15.4581 14.7571 16.2598 14.5578 17.1525 14.5578C17.9238 14.5578 18.6388 14.7268 19.2975 15.0648ZM25.8229 14.6228C26.6375 14.6228 27.3352 14.8265 27.9159 15.2338C28.5052 15.6325 28.9515 16.1785 29.2549 16.8718C29.5669 17.5565 29.7229 18.3235 29.7229 19.1728C29.7229 20.0221 29.5669 20.7935 29.2549 21.4868C28.9515 22.1715 28.5052 22.7175 27.9159 23.1248C27.3352 23.5235 26.6375 23.7228 25.8229 23.7228H22.7159C22.4905 23.7228 22.2999 23.6491 22.1439 23.5018C21.9965 23.3458 21.9229 23.1551 21.9229 22.9298V15.4158C21.9229 15.1905 21.9965 15.0041 22.1439 14.8568C22.2999 14.7008 22.4905 14.6228 22.7159 14.6228H25.8229ZM25.6929 22.2278C26.4729 22.2278 27.0579 21.9418 27.4479 21.3698C27.8379 20.7891 28.0329 20.0568 28.0329 19.1728C28.0329 18.2888 27.8335 17.5608 27.4349 16.9888C27.0449 16.4081 26.4642 16.1178 25.6929 16.1178H23.5479V22.2278H25.6929Z" fill="#7D29F2"/>
<path d="M9.8804 23.5018L10.1472 23.8L10.1555 23.7922L9.8804 23.5018ZM8.7234 23.5018L8.43259 23.7765L8.44044 23.7848L8.44875 23.7926L8.7234 23.5018ZM8.7364 14.8568L9.01116 15.1477L9.01924 15.1397L8.7364 14.8568ZM9.8934 14.8568L9.61044 15.1398L9.61875 15.1476L9.8934 14.8568ZM9.7274 22.9298C9.7274 23.0445 9.69083 23.1304 9.6053 23.2114L10.1555 23.7922C10.3993 23.5612 10.5274 23.2658 10.5274 22.9298H9.7274ZM9.61368 23.2037C9.52076 23.2869 9.42452 23.3228 9.3084 23.3228V24.1228C9.62561 24.1228 9.91071 24.0114 10.1471 23.7999L9.61368 23.2037ZM9.3084 23.3228C9.16644 23.3228 9.07277 23.2816 8.99805 23.211L8.44875 23.7926C8.68603 24.0167 8.98236 24.1228 9.3084 24.1228V23.3228ZM9.01421 23.2272C8.94078 23.1494 8.9024 23.0587 8.9024 22.9298H8.1024C8.1024 23.2516 8.21135 23.5422 8.43259 23.7765L9.01421 23.2272ZM8.9024 22.9298V15.4158H8.1024V22.9298H8.9024ZM8.9024 15.4158C8.9024 15.2943 8.93945 15.2152 9.01105 15.1476L8.46175 14.566C8.22135 14.7931 8.1024 15.0866 8.1024 15.4158H8.9024ZM9.01924 15.1397C9.09237 15.0665 9.18617 15.0228 9.3344 15.0228V14.2228C8.9973 14.2228 8.69243 14.3351 8.45356 14.574L9.01924 15.1397ZM9.3344 15.0228C9.44283 15.0228 9.52804 15.0571 9.61056 15.1397L10.1762 14.574C9.94676 14.3445 9.6593 14.2228 9.3344 14.2228V15.0228ZM9.61875 15.1476C9.69035 15.2152 9.7274 15.2943 9.7274 15.4158H10.5274C10.5274 15.0866 10.4085 14.7931 10.168 14.566L9.61875 15.1476ZM9.7274 15.4158V22.9298H10.5274V15.4158H9.7274ZM19.2975 15.0648L19.4809 14.7094L19.4801 14.7089L19.2975 15.0648ZM19.5055 16.2608L19.8237 16.5032L19.8255 16.5008L19.5055 16.2608ZM18.5305 16.4168L18.7176 16.0633L18.7091 16.0588L18.7004 16.0547L18.5305 16.4168ZM15.5665 16.5078L15.7613 16.8572L15.7664 16.8543L15.5665 16.5078ZM14.5265 17.5868L14.8802 17.7737L14.8816 17.7709L14.5265 17.5868ZM14.9815 21.4998L14.7032 21.7872L14.7055 21.7894L14.9815 21.4998ZM18.5305 21.9938L18.368 21.6283L18.3581 21.6327L18.3484 21.6376L18.5305 21.9938ZM19.5185 22.1758L19.8325 21.9279L19.8281 21.9225L19.5185 22.1758ZM19.6095 23.0858L19.9501 23.2954L19.9501 23.2954L19.6095 23.0858ZM19.3105 23.3458L19.1413 22.9832L19.1316 22.988L19.3105 23.3458ZM14.8125 23.3198L14.6301 23.6758L14.6336 23.6776L14.8125 23.3198ZM13.1095 21.7208L12.7672 21.9278L13.1095 21.7208ZM13.0705 16.7938L12.7245 16.593L12.7227 16.5963L13.0705 16.7938ZM14.7475 15.1558L14.9399 15.5065L14.9432 15.5047L14.7475 15.1558ZM19.114 15.4203C19.1942 15.4616 19.235 15.5046 19.2579 15.5423C19.2809 15.5801 19.3005 15.6366 19.3005 15.7278H20.1005C20.1005 15.5157 20.0529 15.31 19.9415 15.1268C19.8301 14.9435 19.6694 14.8066 19.4809 14.7094L19.114 15.4203ZM19.3005 15.7278C19.3005 15.8077 19.2737 15.9031 19.1855 16.0208L19.8255 16.5008C19.9972 16.2718 20.1005 16.0119 20.1005 15.7278H19.3005ZM19.1873 16.0184C19.1194 16.1076 19.0564 16.1338 18.9725 16.1338V16.9338C19.3219 16.9338 19.6143 16.778 19.8237 16.5032L19.1873 16.0184ZM18.9725 16.1338C18.8985 16.1338 18.815 16.1148 18.7176 16.0633L18.3433 16.7703C18.5406 16.8748 18.7517 16.9338 18.9725 16.9338V16.1338ZM18.7004 16.0547C18.2198 15.8291 17.702 15.7178 17.1525 15.7178V16.5178C17.5909 16.5178 17.9918 16.6059 18.3605 16.7789L18.7004 16.0547ZM17.1525 15.7178C16.4874 15.7178 15.8875 15.8608 15.3666 16.1613L15.7664 16.8543C16.1468 16.6348 16.6042 16.5178 17.1525 16.5178V15.7178ZM15.3717 16.1585C14.851 16.4488 14.4493 16.8667 14.1714 17.4027L14.8816 17.7709C15.089 17.3709 15.3807 17.0694 15.7613 16.8572L15.3717 16.1585ZM14.1728 17.4C13.8954 17.925 13.7625 18.5196 13.7625 19.1728H14.5625C14.5625 18.63 14.6722 18.1672 14.8802 17.7737L14.1728 17.4ZM13.7625 19.1728C13.7625 20.2651 14.0554 21.1599 14.7032 21.7872L15.2597 21.2124C14.8156 20.7824 14.5625 20.1259 14.5625 19.1728H13.7625ZM14.7055 21.7894C15.3468 22.4005 16.1752 22.6928 17.1525 22.6928V21.8928C16.3444 21.8928 15.7255 21.6564 15.2575 21.2103L14.7055 21.7894ZM17.1525 22.6928C17.7315 22.6928 18.2557 22.5835 18.7125 22.35L18.3484 21.6376C18.0253 21.8028 17.6308 21.8928 17.1525 21.8928V22.6928ZM18.6929 22.3593C18.8172 22.3041 18.899 22.2898 18.9465 22.2898V21.4898C18.7513 21.4898 18.5558 21.5448 18.368 21.6283L18.6929 22.3593ZM18.9465 22.2898C19.0397 22.2898 19.1208 22.3214 19.2089 22.4291L19.8281 21.9225C19.6042 21.6489 19.304 21.4898 18.9465 21.4898V22.2898ZM19.2045 22.4237C19.2847 22.5253 19.3135 22.6172 19.3135 22.7088H20.1135C20.1135 22.4191 20.0122 22.1557 19.8324 21.928L19.2045 22.4237ZM19.3135 22.7088C19.3135 22.7772 19.2974 22.8297 19.2688 22.8762L19.9501 23.2954C20.0602 23.1166 20.1135 22.9178 20.1135 22.7088H19.3135ZM19.2688 22.8762C19.2439 22.9166 19.2067 22.9528 19.1413 22.9833L19.4796 23.7083C19.6743 23.6175 19.8363 23.4804 19.9501 23.2954L19.2688 22.8762ZM19.1316 22.988C18.5117 23.298 17.8536 23.4528 17.1525 23.4528V24.2528C17.9767 24.2528 18.7573 24.0696 19.4894 23.7036L19.1316 22.988ZM17.1525 23.4528C16.3609 23.4528 15.6427 23.2877 14.9914 22.962L14.6336 23.6776C15.4036 24.0626 16.2454 24.2528 17.1525 24.2528V23.4528ZM14.9948 22.9638C14.3521 22.6346 13.8391 22.1541 13.4517 21.5138L12.7672 21.9278C13.2292 22.6915 13.8515 23.277 14.6301 23.6758L14.9948 22.9638ZM13.4517 21.5138C13.0722 20.8864 12.8725 20.1122 12.8725 19.1728H12.0725C12.0725 20.2268 12.2974 21.1512 12.7672 21.9278L13.4517 21.5138ZM12.8725 19.1728C12.8725 18.3513 13.057 17.6275 13.4183 16.9913L12.7227 16.5963C12.2866 17.3641 12.0725 18.2263 12.0725 19.1728H12.8725ZM13.4165 16.9946C13.7873 16.3555 14.2932 15.8614 14.9399 15.5065L14.555 14.8051C13.7804 15.2302 13.1684 15.8281 12.7245 16.5931L13.4165 16.9946ZM14.9432 15.5047C15.5885 15.1427 16.3216 14.9578 17.1525 14.9578V14.1578C16.198 14.1578 15.3278 14.3716 14.5518 14.807L14.9432 15.5047ZM17.1525 14.9578C17.863 14.9578 18.5151 15.1129 19.1149 15.4207L19.4801 14.7089C18.7625 14.3407 17.9846 14.1578 17.1525 14.1578V14.9578ZM27.9159 15.2338L27.6861 15.5613L27.6917 15.5651L27.9159 15.2338ZM29.2549 16.8718L28.8884 17.0322L28.8909 17.0377L29.2549 16.8718ZM29.2549 21.4868L28.8901 21.3227L28.8892 21.3248L29.2549 21.4868ZM27.9159 23.1248L28.1423 23.4546L28.1433 23.4539L27.9159 23.1248ZM22.1439 23.5018L21.8531 23.7765L21.8609 23.7848L21.8692 23.7926L22.1439 23.5018ZM22.1439 14.8568L21.861 14.574V14.574L22.1439 14.8568ZM27.4479 21.3698L27.7784 21.5951L27.7799 21.5928L27.4479 21.3698ZM27.4349 16.9888L27.1028 17.2119L27.1067 17.2175L27.4349 16.9888ZM23.5479 16.1178V15.7178H23.1479V16.1178H23.5479ZM23.5479 22.2278H23.1479V22.6278H23.5479V22.2278ZM25.8229 15.0228C26.568 15.0228 27.1824 15.2079 27.6862 15.5613L28.1456 14.9063C27.488 14.445 26.7071 14.2228 25.8229 14.2228V15.0228ZM27.6917 15.5651C28.2144 15.9187 28.6134 16.4035 28.8884 17.0321L29.6213 16.7115C29.2897 15.9534 28.796 15.3463 28.14 14.9025L27.6917 15.5651ZM28.8909 17.0377C29.1763 17.6639 29.3229 18.3733 29.3229 19.1728H30.1229C30.1229 18.2736 29.9575 17.449 29.6189 16.7059L28.8909 17.0377ZM29.3229 19.1728C29.3229 19.9722 29.1763 20.6867 28.8901 21.3227L29.6196 21.651C29.9574 20.9003 30.1229 20.0721 30.1229 19.1728H29.3229ZM28.8892 21.3248C28.6142 21.9453 28.2144 22.4322 27.6884 22.7958L28.1433 23.4539C28.796 23.0027 29.2888 22.3977 29.6206 21.6488L28.8892 21.3248ZM27.6895 22.795C27.1854 23.1411 26.5697 23.3228 25.8229 23.3228V24.1228C26.7053 24.1228 27.485 23.9058 28.1423 23.4546L27.6895 22.795ZM25.8229 23.3228H22.7159V24.1228H25.8229V23.3228ZM22.7159 23.3228C22.587 23.3228 22.4963 23.2844 22.4185 23.211L21.8692 23.7926C22.1035 24.0139 22.3941 24.1228 22.7159 24.1228V23.3228ZM22.4347 23.2272C22.3613 23.1494 22.3229 23.0587 22.3229 22.9298H21.5229C21.5229 23.2516 21.6318 23.5422 21.8531 23.7765L22.4347 23.2272ZM22.3229 22.9298V15.4158H21.5229V22.9298H22.3229ZM22.3229 15.4158C22.3229 15.287 22.3609 15.2055 22.4267 15.1397L21.861 14.574C21.6322 14.8028 21.5229 15.0939 21.5229 15.4158H22.3229ZM22.4267 15.1397C22.5059 15.0604 22.5941 15.0228 22.7159 15.0228V14.2228C22.387 14.2228 22.0938 14.3412 21.861 14.574L22.4267 15.1397ZM22.7159 15.0228H25.8229V14.2228H22.7159V15.0228ZM25.6929 22.6278C26.5856 22.6278 27.3035 22.2916 27.7784 21.5951L27.1174 21.1445C26.8123 21.592 26.3601 21.8278 25.6929 21.8278V22.6278ZM27.7799 21.5928C28.2246 20.9308 28.4329 20.1153 28.4329 19.1728H27.6329C27.6329 19.9983 27.4511 20.6475 27.1158 21.1468L27.7799 21.5928ZM28.4329 19.1728C28.4329 18.229 28.2196 17.4152 27.763 16.7601L27.1067 17.2175C27.4475 17.7064 27.6329 18.3486 27.6329 19.1728H28.4329ZM27.7669 16.7658C27.2941 16.0618 26.5813 15.7178 25.6929 15.7178V16.5178C26.3471 16.5178 26.7957 16.7545 27.1028 17.2118L27.7669 16.7658ZM25.6929 15.7178H23.5479V16.5178H25.6929V15.7178ZM23.1479 16.1178V22.2278H23.9479V16.1178H23.1479ZM23.5479 22.6278H25.6929V21.8278H23.5479V22.6278Z" fill="#7D29F2"/>
</svg>
