<svg width="42" height="48" viewBox="0 0 42 48" fill="none" xmlns="http://www.w3.org/2000/svg">
<path d="M0.0007745 44.1748C-0.0405692 46.2782 1.72052 47.9999 3.82427 47.9999H40.5C41.3285 47.9999 42 47.3284 42 46.4999V40.9687C42 40.7098 41.7901 40.4999 41.5313 40.4999H3.75002C1.70674 40.4999 0.0408057 42.1378 0.0007745 44.1748Z" fill="#04BF55"/>
<path d="M6 37.035V0.465C6 0.208219 5.79178 0 5.535 0H5.25C2.3505 0 0 2.3505 0 5.25V37.823C0 38.1733 0.370594 38.3932 0.6825 38.2336C1.62056 37.7538 2.6655 37.5 3.75 37.5H5.535C5.79178 37.5 6 37.2918 6 37.035Z" fill="#04BF55"/>
<path d="M40.5 0H9.46499C9.20821 0 8.99999 0.208219 8.99999 0.465V37.035C8.99999 37.2918 9.20821 37.5 9.46499 37.5H41.5312C41.7901 37.5 42 37.2901 42 37.0312V1.5C42 0.671531 41.3285 0 40.5 0V0ZM24 11.25H18.2166C18.5006 12.2316 19.0397 13.0997 19.6594 13.8375C20.0156 13.4794 20.3156 13.1147 20.5181 12.7584C20.9278 12.0384 21.8437 11.7863 22.5637 12.1959C23.2837 12.6056 23.535 13.5216 23.1262 14.2416C22.8066 14.8031 22.3716 15.3441 21.8812 15.8512C22.6125 16.3706 23.1581 16.6519 23.1741 16.6603C23.9119 17.0334 24.21 17.9344 23.8387 18.6731C23.4672 19.4122 22.5681 19.7112 21.8287 19.3416C21.7237 19.2881 20.7216 18.7772 19.5159 17.8322C18.3422 18.6609 17.3231 19.2113 17.1075 19.3256C16.3749 19.7135 15.4674 19.4331 15.0806 18.7013C14.6934 17.9691 14.9728 17.0616 15.705 16.6744C16.0669 16.4822 16.6566 16.1391 17.3091 15.7059C16.3116 14.505 15.4547 13.0144 15.135 11.25H15C14.1712 11.25 13.5 10.5787 13.5 9.75C13.5 8.92125 14.1712 8.25 15 8.25H18V7.5C18 6.67125 18.6712 6 19.5 6C20.3287 6 21 6.67125 21 7.5V8.25H24C24.8287 8.25 25.5 8.92125 25.5 9.75C25.5 10.5787 24.8287 11.25 24 11.25ZM36.4744 25.4231C35.6975 25.6822 34.8421 25.2677 34.5769 24.4744L34.1691 23.25H30.3309L29.9231 24.4744C29.6606 25.26 28.8112 25.6856 28.0256 25.4231C27.24 25.1606 26.8153 24.3113 27.0769 23.5256C28.7798 18.4165 27.7625 21.4699 29.8397 15.2372C30.1866 14.1984 31.155 13.5 32.25 13.5C33.345 13.5 34.3134 14.1984 34.6603 15.2372C36.3615 20.3416 35.8319 18.7519 37.4231 23.5256C37.6847 24.3113 37.26 25.1606 36.4744 25.4231Z" fill="#04BF55"/>
<path d="M31.3313 20.2498H33.1688L32.25 17.4936L31.3313 20.2498Z" fill="#04BF55"/>
</svg>
