<svg width="24" height="24" viewBox="0 0 24 24" fill="#9393AA" xmlns="http://www.w3.org/2000/svg">
<path d="M14.8572 13C14.2657 13.0007 13.7864 13.48 13.7857 14.0714C13.7857 14.6632 14.2654 15.1429 14.8572 15.1429C15.4489 15.1429 15.9286 14.6632 15.9286 14.0714C15.9286 13.4797 15.4489 13 14.8572 13Z" />
<path d="M10.4641 10.9761L13.2625 13.284C13.3692 13.0694 13.518 12.8785 13.7 12.7227L10.8269 10.355C10.7496 10.5846 10.6261 10.796 10.4641 10.9761Z" />
<path d="M16.3984 13.1856L20.3185 6.81415C20.0925 6.732 19.8855 6.60497 19.71 6.44067L15.9024 12.6302C16.1048 12.7785 16.2738 12.9677 16.3984 13.1856Z" />
<path d="M9.00509 8.00516C9.92497 7.93473 10.7465 8.5782 10.8984 9.4882L14.3812 12.3582C14.6622 12.2715 14.9615 12.2623 15.2474 12.3316L19.2696 5.79316C19.1867 5.58629 19.1437 5.36566 19.1427 5.14285C19.1439 4.29473 19.7406 3.56398 20.5713 3.39324V3.35715C20.5711 3.16 20.4113 3.0002 20.2142 3H3.78555C3.58841 3.0002 3.4286 3.15996 3.42841 3.35715V13.9213L7.35966 9.75922C7.37126 8.83668 8.08516 8.07559 9.00509 8.00516Z" />
<path d="M20.9287 4.07141C20.337 4.07141 19.8572 4.5511 19.8572 5.14286C19.8572 5.73458 20.3369 6.2143 20.9287 6.2143C21.5202 6.21364 21.9995 5.73434 22.0001 5.14286C22.0001 4.5511 21.5204 4.07141 20.9287 4.07141Z" />
<path d="M14.806 15.8565C13.8393 15.8306 13.0695 15.0385 13.0715 14.0714C13.0715 14.0654 13.0732 14.0599 13.0733 14.0539L9.87072 11.4127C9.49174 11.59 9.06037 11.62 8.66053 11.4968L4.82681 15.5565C4.9133 16.0138 4.81459 16.4867 4.5524 16.8712C4.29017 17.2557 3.88595 17.5203 3.42865 17.6067V19.7857C3.42885 19.9828 3.58865 20.1426 3.7858 20.1428H20.2144C20.4115 20.1426 20.5713 19.9828 20.5715 19.7857V7.76575L16.6333 14.1665C16.5836 15.1323 15.7727 15.8823 14.806 15.8565Z" />
<path d="M4.14285 15.8571C4.14285 15.2654 3.66316 14.7856 3.07141 14.7856C2.47965 14.7856 2 15.2654 2 15.8571C2.00066 16.4486 2.47996 16.9279 3.07145 16.9285C3.66316 16.9285 4.14285 16.4488 4.14285 15.8571Z" />
<path d="M7.55742 10.5897L4.01062 14.3448C4.21406 14.4708 4.39023 14.6362 4.52875 14.8313L8.00503 11.1501C7.81945 10.9955 7.66718 10.8049 7.55742 10.5897Z" />
<path d="M8.07153 9.78568C8.0722 10.3772 8.55149 10.8565 9.14298 10.8571C9.7347 10.8571 10.2144 10.3774 10.2144 9.78568C10.2144 9.19392 9.73474 8.71423 9.14298 8.71423C8.55122 8.71423 8.07153 9.19392 8.07153 9.78568Z" />
</svg>
