<svg width="34" height="38" viewBox="0 0 34 38" fill="none" xmlns="http://www.w3.org/2000/svg">
<g opacity="0.5">
<path d="M8.89136 19.4706C8.89136 18.4474 8.18083 17.8367 6.92693 17.8367C6.41544 17.8367 6.0689 17.886 5.88718 17.9355V21.2213C6.10201 21.27 6.36611 21.2867 6.72831 21.2867C8.0661 21.2867 8.89136 20.61 8.89136 19.4706Z" fill="#0798F2"/>
<path d="M16.6523 17.8701C16.0904 17.8701 15.728 17.9196 15.5126 17.9691V25.2492C15.7276 25.2995 16.0744 25.2995 16.3881 25.2995C18.666 25.3154 20.1518 24.0614 20.1518 21.4033C20.1685 19.0912 18.8145 17.8701 16.6523 17.8701Z" fill="#0798F2"/>
<path d="M31.5233 13.5924H30.6108V9.18973C30.6108 9.16227 30.6064 9.13461 30.6028 9.10681C30.6013 8.93198 30.5457 8.76027 30.426 8.62422L23.0995 0.254851C23.0972 0.252712 23.0951 0.251953 23.0936 0.249607C23.0499 0.200831 22.999 0.160265 22.9452 0.125149C22.9292 0.114455 22.9132 0.105486 22.8965 0.0962417C22.8498 0.0707842 22.8004 0.0496731 22.7495 0.0344262C22.7357 0.0305628 22.7232 0.0249055 22.7094 0.021318C22.6541 0.00820986 22.5966 0 22.5384 0H4.5324C3.71017 0 3.0422 0.668724 3.0422 1.49026V13.5921H2.12994C0.953724 13.5921 0 14.5454 0 15.722V26.7981C0 27.9739 0.953724 28.9278 2.12994 28.9278H3.04227V36.5097C3.04227 37.3312 3.71024 38 4.53246 38H29.1207C29.9421 38 30.6109 37.3313 30.6109 36.5097V28.9278H31.5233C32.6992 28.9278 33.6531 27.9739 33.6531 26.7981V15.7224C33.6531 14.5458 32.6991 13.5924 31.5233 13.5924ZM4.5324 1.49054H21.7933V9.11488C21.7933 9.52654 22.1273 9.85997 22.5384 9.85997H29.1206V13.5929H4.5324V1.49054ZM22.8258 21.3196C22.8258 23.4498 22.0502 24.9185 20.9755 25.827C19.8047 26.8009 18.0213 27.2629 15.8429 27.2629C14.539 27.2629 13.6147 27.1804 12.9866 27.0981V16.1689C13.911 16.0207 15.1169 15.9381 16.3881 15.9381C18.5001 15.9381 19.8706 16.3181 20.9442 17.1265C22.0993 17.9851 22.8258 19.3551 22.8258 21.3196ZM3.39405 27.1477V16.1689C4.16958 16.0376 5.25969 15.9381 6.79501 15.9381C8.34667 15.9381 9.453 16.2353 10.1956 16.83C10.9057 17.391 11.3833 18.3156 11.3833 19.4053C11.3833 20.4953 11.0211 21.4197 10.3602 22.0466C9.50185 22.8557 8.23084 23.2191 6.74464 23.2191C6.41501 23.2191 6.11683 23.2024 5.88675 23.1693V27.1479H3.39405V27.1477ZM29.1207 36.1063H4.5324V28.9278H29.1206V36.1063H29.1207ZM31.2799 18.0843H27.0032V20.6266H30.9986V22.6738H27.0032V27.1477H24.4786V16.0207H31.2799V18.0843Z" fill="#272755"/>
<rect x="1.58333" y="15.0417" width="30.875" height="12.6667" fill="#272755"/>
</g>
<path d="M1.65662 18.449H3.31595C4.05484 18.449 4.62695 18.6453 5.03228 19.038C5.44184 19.4306 5.64662 19.9838 5.64662 20.6973C5.64662 21.4151 5.44184 21.9724 5.03228 22.3693C4.62695 22.762 4.05484 22.9583 3.31595 22.9583H1.65662V18.449ZM3.26528 22.2933C4.30395 22.2933 4.82328 21.7613 4.82328 20.6973C4.82328 19.6418 4.30395 19.114 3.26528 19.114H2.47362V22.2933H3.26528Z" fill="white"/>
<path d="M7.87417 23.009C7.54906 23.009 7.26195 22.9414 7.01283 22.8063C6.76795 22.6712 6.57795 22.4791 6.44283 22.23C6.31195 21.9766 6.2465 21.6811 6.2465 21.3433C6.2465 21.0055 6.31195 20.7121 6.44283 20.463C6.57795 20.2096 6.76795 20.0154 7.01283 19.8803C7.26195 19.7452 7.54906 19.6776 7.87417 19.6776C8.19506 19.6776 8.47795 19.7452 8.72283 19.8803C8.96772 20.0154 9.15561 20.2096 9.2865 20.463C9.42161 20.7121 9.48917 21.0055 9.48917 21.3433C9.48917 21.6811 9.42161 21.9766 9.2865 22.23C9.15561 22.4791 8.96772 22.6712 8.72283 22.8063C8.47795 22.9414 8.19506 23.009 7.87417 23.009ZM7.86783 22.3883C8.13806 22.3883 8.34283 22.3018 8.48217 22.1286C8.62572 21.9513 8.6975 21.6895 8.6975 21.3433C8.6975 21.0013 8.62572 20.7416 8.48217 20.5643C8.33861 20.3828 8.13595 20.292 7.87417 20.292C7.60817 20.292 7.40339 20.3828 7.25983 20.5643C7.11628 20.7416 7.0445 21.0013 7.0445 21.3433C7.0445 21.6895 7.11417 21.9513 7.2535 22.1286C7.39706 22.3018 7.60183 22.3883 7.86783 22.3883Z" fill="white"/>
<path d="M11.6222 23.009C11.2887 23.009 10.9994 22.9414 10.7545 22.8063C10.5097 22.6712 10.3218 22.4812 10.1909 22.2363C10.06 21.9872 9.99455 21.6959 9.99455 21.3623C9.99455 21.0288 10.0621 20.7353 10.1972 20.482C10.3365 20.2286 10.5308 20.0323 10.7799 19.893C11.0332 19.7494 11.3245 19.6776 11.6539 19.6776C11.8819 19.6776 12.1014 19.7135 12.3125 19.7853C12.5279 19.8571 12.6989 19.9563 12.8255 20.083L12.6039 20.6403C12.4688 20.5305 12.3252 20.4482 12.1732 20.3933C12.0212 20.3342 11.8713 20.3046 11.7235 20.3046C11.4364 20.3046 11.2127 20.3954 11.0522 20.577C10.8918 20.7543 10.8115 21.0119 10.8115 21.3496C10.8115 21.6874 10.8897 21.945 11.0459 22.1223C11.2063 22.2996 11.4322 22.3883 11.7235 22.3883C11.8713 22.3883 12.0212 22.3588 12.1732 22.2996C12.3252 22.2405 12.4688 22.1561 12.6039 22.0463L12.8255 22.6036C12.6904 22.7303 12.5152 22.8295 12.2999 22.9013C12.0845 22.9731 11.8587 23.009 11.6222 23.009Z" fill="white"/>
<path d="M16.2704 19.76V22.9583H15.4978V22.4643C15.3964 22.6416 15.2613 22.7768 15.0924 22.8696C14.9235 22.9625 14.7293 23.009 14.5098 23.009C13.7287 23.009 13.3381 22.5699 13.3381 21.6916V19.76H14.1234V21.698C14.1234 21.9302 14.1699 22.1012 14.2628 22.211C14.3599 22.3208 14.5077 22.3756 14.7061 22.3756C14.9383 22.3756 15.1241 22.2996 15.2634 22.1476C15.4028 21.9956 15.4724 21.793 15.4724 21.5396V19.76H16.2704Z" fill="white"/>
<path d="M20.9046 19.6776C21.2677 19.6776 21.5379 19.7874 21.7152 20.007C21.8926 20.2223 21.9812 20.5516 21.9812 20.995V22.9583H21.1896V21.0203C21.1896 20.767 21.1473 20.5854 21.0629 20.4756C20.9827 20.3616 20.8476 20.3046 20.6576 20.3046C20.438 20.3046 20.2649 20.3828 20.1382 20.539C20.0158 20.691 19.9546 20.9021 19.9546 21.1723V22.9583H19.1629V21.0203C19.1629 20.7712 19.1186 20.5896 19.0299 20.4756C18.9454 20.3616 18.8103 20.3046 18.6246 20.3046C18.405 20.3046 18.2319 20.3828 18.1052 20.539C17.9786 20.691 17.9152 20.9021 17.9152 21.1723V22.9583H17.1299V20.6656C17.1299 20.3279 17.113 20.026 17.0792 19.76H17.8202L17.8772 20.2666C17.9701 20.0766 18.1031 19.931 18.2762 19.8296C18.4536 19.7283 18.6562 19.6776 18.8842 19.6776C19.374 19.6776 19.6928 19.8803 19.8406 20.2856C19.9419 20.0956 20.0854 19.9479 20.2712 19.8423C20.4612 19.7325 20.6723 19.6776 20.9046 19.6776Z" fill="white"/>
<path d="M25.6255 21.4003H23.4215C23.4384 21.7423 23.5228 21.9956 23.6748 22.1603C23.8311 22.3208 24.0612 22.401 24.3652 22.401C24.7156 22.401 25.0407 22.287 25.3405 22.059L25.5685 22.6036C25.4165 22.7261 25.2286 22.8253 25.0048 22.9013C24.7853 22.9731 24.5615 23.009 24.3335 23.009C23.81 23.009 23.3983 22.8612 23.0985 22.5656C22.7987 22.2701 22.6488 21.8648 22.6488 21.3496C22.6488 21.0245 22.7143 20.7353 22.8452 20.482C22.9761 20.2286 23.1597 20.0323 23.3962 19.893C23.6326 19.7494 23.9007 19.6776 24.2005 19.6776C24.6396 19.6776 24.9858 19.8212 25.2392 20.1083C25.4967 20.3912 25.6255 20.7818 25.6255 21.28V21.4003ZM24.2195 20.2476C24.0084 20.2476 23.8353 20.311 23.7002 20.4376C23.5693 20.5601 23.4848 20.7395 23.4468 20.976H24.9352C24.9098 20.7353 24.836 20.5538 24.7135 20.4313C24.5953 20.3089 24.4306 20.2476 24.2195 20.2476Z" fill="white"/>
<path d="M28.1262 19.6776C28.8905 19.6776 29.2726 20.1168 29.2726 20.995V22.9583H28.4809V21.033C28.4809 20.7796 28.4323 20.596 28.3352 20.482C28.2381 20.3638 28.0882 20.3046 27.8856 20.3046C27.6449 20.3046 27.4507 20.3828 27.3029 20.539C27.1551 20.691 27.0812 20.8936 27.0812 21.147V22.9583H26.2959V20.6656C26.2959 20.3279 26.279 20.026 26.2452 19.76H26.9862L27.0432 20.2856C27.153 20.0914 27.3008 19.9415 27.4866 19.836C27.6766 19.7304 27.8898 19.6776 28.1262 19.6776Z" fill="white"/>
<path d="M31.119 20.3553V21.7866C31.119 22.1624 31.2942 22.3503 31.6446 22.3503C31.7418 22.3503 31.8473 22.3334 31.9613 22.2996V22.9266C31.822 22.9773 31.6531 23.0026 31.4547 23.0026C31.0915 23.0026 30.8129 22.9013 30.6186 22.6986C30.4244 22.496 30.3273 22.2046 30.3273 21.8246V20.3553H29.713V19.76H30.3273V18.981L31.119 18.715V19.76H31.9677V20.3553H31.119Z" fill="white"/>
</svg>
