<svg width="13" height="20" viewBox="0 0 13 20" fill="none" xmlns="http://www.w3.org/2000/svg">
<path d="M12.8141 6.38191C12.8141 2.86281 9.95126 0 6.43216 0C2.88543 0 0 2.86281 0 6.38191C0 9.64824 2.48543 12.3482 5.67839 12.7196V16.0804H4.0201C3.60402 16.0804 3.26633 16.4181 3.26633 16.8342C3.26633 17.2503 3.60402 17.5879 4.0201 17.5879H5.67839V19.2462C5.67839 19.6623 6.01608 20 6.43216 20C6.84824 20 7.18593 19.6623 7.18593 19.2462V17.5879H8.84422C9.2603 17.5879 9.59799 17.2503 9.59799 16.8342C9.59799 16.4181 9.2603 16.0804 8.84422 16.0804H7.18593V12.7191C10.3513 12.3452 12.8141 9.64573 12.8141 6.38191ZM6.43216 9.54774C4.68643 9.54774 3.26633 8.12764 3.26633 6.38191C3.26633 4.63618 4.68643 3.21608 6.43216 3.21608C8.17789 3.21608 9.59799 4.63618 9.59799 6.38191C9.59799 8.12764 8.17789 9.54774 6.43216 9.54774Z" fill="#FF6378"/>
<path d="M7.1859 12.7191V16.0804H8.84419C9.26027 16.0804 9.59796 16.4181 9.59796 16.8342C9.59796 17.2503 9.26027 17.5879 8.84419 17.5879H7.1859V19.2462C7.1859 19.6623 6.84821 20 6.43213 20V9.54774C8.17786 9.54774 9.59796 8.12764 9.59796 6.38191C9.59796 4.63618 8.17786 3.21608 6.43213 3.21608V0C9.95122 0 12.814 2.86281 12.814 6.38191C12.814 9.64573 10.3512 12.3452 7.1859 12.7191Z" fill="#FF1F3D"/>
</svg>
