<svg width="13" height="20" viewBox="0 0 13 20" fill="none" xmlns="http://www.w3.org/2000/svg">
<path d="M7.13462 7.28232V2.16498L8.37464 2.99149C8.71906 3.22156 9.18824 3.13007 9.41971 2.78248C9.65084 2.4363 9.55688 1.96803 9.2107 1.73741C6.6148 0.00680929 6.75091 0.0893597 6.65379 0.0547417C6.4701 -0.0177099 6.26229 -0.012183 6.08654 0.0632833C5.98615 0.107196 6.18843 -0.0207243 3.55123 1.73741C3.20505 1.96803 3.1111 2.4363 3.34222 2.78248C3.57284 3.12866 4.04111 3.22262 4.38729 2.99149L5.62731 2.16498V7.28282C2.46245 7.65663 0 10.3557 0 13.6191C0 17.1376 2.86239 20 6.38097 20C9.92718 20 12.8122 17.1376 12.8122 13.6191C12.8122 10.3532 10.3271 7.65362 7.13462 7.28232ZM6.38097 16.7844C4.6355 16.7844 3.21561 15.3645 3.21561 13.6191C3.21561 11.8736 4.6355 10.4537 6.38097 10.4537C8.12644 10.4537 9.54633 11.8736 9.54633 13.6191C9.54633 15.3645 8.12644 16.7844 6.38097 16.7844Z" fill="#6BA7FF"/>
</svg>
