<svg width="18" height="20" viewBox="0 0 18 20" fill="none" xmlns="http://www.w3.org/2000/svg">
<path d="M8.59382 7.13965C8.09702 7.13965 7.74377 7.34941 7.74377 7.65852V11.8645C7.74377 12.1294 8.09706 12.3944 8.59382 12.3944C9.06851 12.3944 9.45488 12.1294 9.45488 11.8645V7.65852C9.45488 7.34941 9.06851 7.13965 8.59382 7.13965Z" fill="#F2CB05"/>
<path d="M8.59383 4.54541C8.08602 4.54541 7.6886 4.90971 7.6886 5.3292C7.6886 5.74869 8.08602 6.12405 8.59383 6.12405C9.09063 6.12405 9.48805 5.74869 9.48805 5.3292C9.48805 4.90975 9.09059 4.54541 8.59383 4.54541Z" fill="#F2CB05"/>
<path d="M8.59375 0C3.84367 0 0 3.84172 0 8.58879C0 12.465 2.55207 15.6836 5.99285 16.7766L7.94723 19.6574C8.09262 19.8717 8.33477 20 8.59375 20C8.85273 20 9.09488 19.8717 9.24027 19.6574L11.1946 16.7766C14.637 15.683 17.1875 12.4633 17.1875 8.58879C17.1875 3.83871 13.3407 0 8.59375 0ZM10.4939 15.3554C10.316 15.4052 10.1615 15.5164 10.0578 15.6692L8.59375 17.8272L7.12973 15.6693C7.02598 15.5164 6.87148 15.4052 6.69355 15.3555C3.76473 14.5365 1.5625 11.843 1.5625 8.58879C1.5625 4.71445 4.71672 1.5625 8.59375 1.5625C12.4708 1.5625 15.625 4.71445 15.625 8.58879C15.625 11.8462 13.4195 14.5374 10.4939 15.3554Z" fill="#F2CB05"/>
</svg>
